<svg version="1.1" id="Layer_1" xmlns="http://www.w3.org/2000/svg" xmlns:xlink="http://www.w3.org/1999/xlink" x="0px" y="0px" viewBox="0 0 500 500" style="width: 188px;" xml:space="preserve" data-imageid="facebook-70" imageName="Facebook" class="illustrations_image">
<style type="text/css">
	.st0_facebook-70{fill:#231F20;}
	.st1_facebook-70{fill:#FFFFFF;}
	.st2_facebook-70{fill:#D1D3D4;}
	.st3_facebook-70{fill:#68E1FD;}
</style>
<g id="Smartphone_facebook-70">
	<path class="st0_facebook-70" d="M373.7,129.1c0,0-3.2-6-8.5-14.3c0,0-16.5,12.4-16.4,11.7S373.7,129.1,373.7,129.1L373.7,129.1z"/>
	<path class="st0_facebook-70" d="M373.7,129.8L373.7,129.8c-8.8-1.1-23-2.9-24.6-2.7c-0.4,0.2-0.5,0.1-0.7,0c-0.2-0.2-0.4-0.5-0.3-0.8&#10;&#9;&#9;c0-0.2,0.1-0.4,0.5-0.5l0,0c1-0.4,10.4-7.3,16.1-11.6c0.2-0.1,0.4-0.2,0.5-0.1c0.2,0,0.4,0.2,0.5,0.3c5.2,8.2,8.5,14.2,8.5,14.3&#10;&#9;&#9;c0.1,0.2,0.1,0.5,0,0.7C374.2,129.7,374,129.8,373.7,129.8L373.7,129.8z M351.3,125.8c3,0.2,9.1,0.8,21.1,2.4&#10;&#9;&#9;c-1.2-2.1-3.8-6.7-7.4-12.4C357.5,121.4,353.5,124.3,351.3,125.8L351.3,125.8z"/>
	<polygon class="st0_facebook-70" points="154.4,378.7 146.2,365 157.6,354.6 &#9;"/>
	<path class="st0_facebook-70" d="M154.4,379.4c-0.2,0-0.5-0.1-0.6-0.3l-8.3-13.8c-0.2-0.3-0.1-0.7,0.1-0.9l11.4-10.3c0.2-0.2,0.5-0.2,0.8-0.1&#10;&#9;&#9;c0.3,0.1,0.4,0.4,0.4,0.7l-3.2,24.1c0,0.3-0.3,0.5-0.6,0.6L154.4,379.4L154.4,379.4z M147.1,365.1l6.9,11.6l2.7-20.2L147.1,365.1z"/>
	<path class="st0_facebook-70" d="M159.8,381.6l133,19c5.6,0.7,11-2.7,12.6-8.2L374.2,135c1.4-5.3-2-10-7.6-10.5l-135.6-11&#10;&#9;&#9;c-5.5-0.3-10.5,3.3-12.1,8.6l-66,248.9c-1.3,4.4,1.2,9,5.5,10.3C158.8,381.5,159.3,381.6,159.8,381.6L159.8,381.6z"/>
	<path class="st0_facebook-70" d="M294.2,401.4c-0.5,0-1.1,0-1.6-0.1l-133-19l0,0c-2.6-0.3-4.9-1.8-6.4-3.9c-1.5-2.2-1.9-5-1.1-7.6l66-248.9&#10;&#9;&#9;c1.7-5.6,7-9.4,12.9-9l135.6,10.9c2.8,0.1,5.4,1.5,7.1,3.8c1.5,2.2,2,5,1.2,7.6L306,392.6C304.4,397.8,299.7,401.4,294.2,401.4&#10;&#9;&#9;L294.2,401.4z M159.9,381l133,19c5.3,0.7,10.3-2.6,11.8-7.6l68.8-257.5c0.6-2.2,0.3-4.5-1-6.4c-1.4-1.9-3.6-3.1-6-3.2l-135.7-11&#10;&#9;&#9;c-5.2-0.3-9.9,3.1-11.3,8.1l-66,248.9c-0.6,2.2-0.2,4.5,1,6.4C155.8,379.5,157.7,380.7,159.9,381L159.9,381z"/>
	<path class="st1_facebook-70" d="M151.1,367.4l133,19c5.6,0.7,11-2.7,12.6-8.2l68.8-257.5c1.4-5.3-2-10-7.6-10.5L222.2,99.3&#10;&#9;&#9;c-5.5-0.3-10.5,3.3-12.1,8.6l-66,248.9c-1.3,4.4,1.2,9,5.5,10.3C150.2,367.3,150.7,367.4,151.1,367.4L151.1,367.4z"/>
	<path class="st0_facebook-70" d="M285.6,387.2c-0.5,0-1.1,0-1.6-0.1l-133-19c-2.6-0.3-4.9-1.8-6.4-3.9c-1.5-2.2-1.9-5-1.1-7.6l66-248.9&#10;&#9;&#9;c1.7-5.6,7-9.4,12.8-9.1l135.6,10.9c2.8,0.1,5.4,1.5,7.1,3.8c1.5,2.2,2,5,1.2,7.6l-68.8,257.5C295.8,383.6,291,387.2,285.6,387.2&#10;&#9;&#9;L285.6,387.2z M221.4,100c-4.9,0.1-9.2,3.4-10.6,8.1l-66,248.9c-0.6,2.2-0.2,4.5,1,6.4c1.2,1.8,3.2,3,5.4,3.3l0,0l133,19&#10;&#9;&#9;c5.3,0.6,10.2-2.6,11.7-7.7l68.8-257.5c0.6-2.2,0.3-4.5-1-6.4c-1.4-1.9-3.6-3.1-6-3.2L222.2,100C221.9,100,221.7,100,221.4,100&#10;&#9;&#9;L221.4,100z"/>
	<path class="st1_facebook-70" d="M206.1,365.9l25.9,3.6c3.4,0.4,6.6-1.7,7.6-5l2.6-9.7c0.8-2.8-0.8-5.7-3.5-6.5c-0.3-0.1-0.6-0.2-0.9-0.2&#10;&#9;&#9;l-26-3.5c-3.4-0.4-6.5,1.7-7.5,5l-2.6,9.6c-0.8,2.7,0.7,5.6,3.5,6.4C205.4,365.9,205.7,365.9,206.1,365.9L206.1,365.9z"/>
	<path class="st2_facebook-70" d="M232.9,370.4c-0.3,0-0.7,0-1-0.1l-25.9-3.6c-3.2-0.4-5.6-3.2-5.2-6.5c0-0.3,0.1-0.7,0.2-1l2.6-9.6&#10;&#9;&#9;c1.1-3.6,4.5-5.9,8.2-5.5l26,3.5c1.7,0.2,3.3,1.2,4.3,2.6c0.9,1.5,1.2,3.2,0.8,4.9l-2.6,9.7C239.3,368.1,236.3,370.3,232.9,370.4&#10;&#9;&#9;L232.9,370.4z M210.9,345.4c-2.8,0-5.2,1.8-6,4.5l-2.6,9.6c-0.7,2.4,0.6,4.9,3,5.6c0.3,0.1,0.5,0.1,0.8,0.2l0,0l26,3.6&#10;&#9;&#9;c3.1,0.4,5.9-1.5,6.8-4.5l2.6-9.7c0.4-1.3,0.2-2.7-0.6-3.8c-0.8-1.1-2-1.8-3.3-2l-26-3.5C211.4,345.4,211.2,345.4,210.9,345.4&#10;&#9;&#9;L210.9,345.4z"/>
	<path class="st2_facebook-70" d="M311.3,120.4L311.3,120.4l-39.7-3.3c-0.4,0-0.7-0.4-0.6-0.8c0-0.4,0.4-0.7,0.8-0.6l39.7,3.3&#10;&#9;&#9;c0.4,0,0.7,0.4,0.6,0.8C312,120.1,311.7,120.4,311.3,120.4z"/>
	<path class="st2_facebook-70" d="M266.1,116.7L266.1,116.7l-5.3-0.4c-0.4,0-0.7-0.4-0.6-0.8c0-0.4,0.4-0.7,0.8-0.6l0,0l5.3,0.4&#10;&#9;&#9;c0.4,0,0.7,0.4,0.6,0.8C266.8,116.4,266.5,116.7,266.1,116.7z"/>
</g>
<g id="Screen_facebook-70">
	<polygon class="st1_facebook-70" points="351.3,137.7 297.9,343.6 159.5,327.2 213.1,125.7 &#9;"/>
	<path class="st0_facebook-70" d="M297.9,344.4L297.9,344.4l-138.5-16.5c-0.2,0-0.4-0.1-0.5-0.3c-0.1-0.2-0.1-0.4-0.1-0.6l53.7-201.5&#10;&#9;&#9;c0.1-0.3,0.4-0.5,0.7-0.5l138.1,12c0.2,0,0.4,0.1,0.5,0.3c0.1,0.2,0.2,0.4,0.1,0.6l-53.3,206C298.5,344.1,298.3,344.4,297.9,344.4&#10;&#9;&#9;L297.9,344.4z M160.4,326.6l137.1,16.3l53-204.5l-136.8-11.9L160.4,326.6z"/>
	<path class="st2_facebook-70" d="M312.2,161.4l-68-6.4c-3-0.2-5.4-2.8-5.2-5.8c0-0.4,0.1-0.9,0.2-1.3l0,0c1.1-3.7,4.6-6.1,8.5-5.9l68,6.1&#10;&#9;&#9;c3.1,0.1,5.6,2.7,5.5,5.9c0,0.5-0.1,0.9-0.2,1.4l0,0C319.9,159.3,316.2,161.8,312.2,161.4L312.2,161.4z"/>
	<path class="st2_facebook-70" d="M339.5,164.7L339.5,164.7l-14.6-1.4c-0.2,0-0.4-0.1-0.5-0.3c-0.1-0.2-0.2-0.4-0.1-0.6l3.2-12.3&#10;&#9;&#9;c0.1-0.3,0.4-0.6,0.7-0.5l14.5,1.3c0.2,0,0.4,0.1,0.5,0.3c0.1,0.2,0.2,0.4,0.1,0.6l-3.2,12.3C340.1,164.4,339.8,164.7,339.5,164.7&#10;&#9;&#9;L339.5,164.7z M325.8,162l13.2,1.2l2.8-11l-13.1-1.2L325.8,162z"/>
	<path class="st2_facebook-70" d="M335.7,159.4c-0.2,0-0.5-0.1-0.6-0.3l-2.2-3.7c-2.9,1.5-5.8,3.2-6.3,3.6c-0.2,0.2-0.5,0.3-0.7,0.3&#10;&#9;&#9;c-0.4-0.1-0.6-0.5-0.5-0.9c0.1-0.4,0.2-0.6,7.5-4.6c0.3-0.2,0.7-0.1,0.9,0.3l2.6,4.3c0.2,0.3,0.1,0.8-0.2,1c0,0,0,0,0,0&#10;&#9;&#9;C336,159.4,335.8,159.4,335.7,159.4L335.7,159.4z"/>
	<path class="st2_facebook-70" d="M341.1,158.5c-0.2,0-0.4-0.1-0.5-0.2l-2.2-2.5l-3.1,2.1c-0.3,0.2-0.8,0.2-1-0.2c0,0,0,0,0,0&#10;&#9;&#9;c-0.2-0.3-0.2-0.7,0.1-1c0,0,0,0,0.1,0l3.6-2.4c0.3-0.2,0.7-0.1,0.9,0.1l2.6,3c0.3,0.3,0.2,0.7,0,1c0,0,0,0,0,0&#10;&#9;&#9;C341.4,158.4,341.2,158.5,341.1,158.5L341.1,158.5z"/>
	<path class="st3_facebook-70 targetColor" d="M227.4,189.3c-1.4,4.7-5.8,7.7-10.7,7.4c-3.9-0.2-6.8-3.5-6.6-7.4c0-0.6,0.1-1.1,0.3-1.7&#10;&#9;&#9;c1.4-4.6,5.8-7.7,10.6-7.4c3.9,0.2,6.8,3.5,6.6,7.4C227.7,188.2,227.6,188.8,227.4,189.3L227.4,189.3z" style="fill: rgb(153, 255, 132);"/>
	<path class="st2_facebook-70" d="M208.8,259.9c-1.3,4.7-5.8,7.7-10.7,7.3c-4-0.4-6.9-3.8-6.5-7.8c0-0.5,0.1-1,0.3-1.5c1.3-4.7,5.8-7.7,10.6-7.3&#10;&#9;&#9;c4,0.3,6.9,3.8,6.6,7.8C209,258.9,208.9,259.5,208.8,259.9z"/>
	<path class="st2_facebook-70" d="M200.5,291.1c-1.3,4.7-5.8,7.7-10.7,7.2c-4-0.4-6.9-4-6.5-8c0-0.5,0.1-0.9,0.3-1.4c1.3-4.7,5.8-7.7,10.6-7.2&#10;&#9;&#9;c4,0.4,6.9,3.9,6.6,7.9C200.7,290.2,200.6,290.7,200.5,291.1L200.5,291.1z"/>
	<path class="st2_facebook-70" d="M293.5,192.2L293.5,192.2l-57.7-5.8c-0.4,0-0.7-0.4-0.6-0.8c0-0.4,0.4-0.7,0.8-0.6l57.7,5.8&#10;&#9;&#9;c0.4,0,0.7,0.3,0.7,0.7C294.3,191.9,293.9,192.2,293.5,192.2L293.5,192.2z"/>
	<path class="st2_facebook-70" d="M255,197.2L255,197.2l-21.5-2.2c-0.4,0-0.7-0.4-0.6-0.8c0-0.4,0.4-0.7,0.8-0.6l21.4,2.2c0.4,0,0.7,0.3,0.7,0.7&#10;&#9;&#9;S255.4,197.3,255,197.2L255,197.2z"/>
	<path class="st2_facebook-70" d="M314.4,214.8L314.4,214.8L210.9,204c-0.4-0.1-0.6-0.4-0.6-0.8c0.1-0.4,0.4-0.6,0.7-0.6l103.4,10.8&#10;&#9;&#9;c0.4,0,0.7,0.4,0.6,0.8c0,0,0,0,0,0C315.1,214.6,314.8,214.8,314.4,214.8L314.4,214.8z"/>
	<path class="st2_facebook-70" d="M302.8,224.2L302.8,224.2l-94.6-10.1c-0.4,0-0.7-0.4-0.7-0.7s0.4-0.7,0.7-0.7c0,0,0,0,0.1,0l94.5,10.1&#10;&#9;&#9;c0.4,0,0.7,0.3,0.7,0.7C303.6,224,303.2,224.3,302.8,224.2L302.8,224.2L302.8,224.2z"/>
	<path class="st2_facebook-70" d="M288.5,318.8c-0.4,0-0.9,0-1.3-0.1l0,0l-106.6-13.9c-2.3-0.3-4.4-1.5-5.7-3.4c-1.3-2-1.7-4.4-1-6.7l30.7-115.4&#10;&#9;&#9;c1.5-4.9,6.1-8.1,11.2-7.8l106.7,10.4c2.5,0.2,4.7,1.4,6.2,3.4c1.3,1.9,1.7,4.4,1.1,6.6l-30.8,118.9&#10;&#9;&#9;C297.5,315.5,293.3,318.7,288.5,318.8L288.5,318.8z M287.3,317.3c4.6,0.5,8.9-2.3,10.2-6.8l30.8-118.9c0.5-1.9,0.2-3.9-0.9-5.5&#10;&#9;&#9;c-1.2-1.7-3.1-2.7-5.1-2.8l-106.7-10.4c-4.4-0.3-8.5,2.5-9.7,6.8L175.2,295c-0.5,1.9-0.2,3.9,0.8,5.6c1.1,1.6,2.8,2.6,4.7,2.8&#10;&#9;&#9;L287.3,317.3L287.3,317.3z"/>
	<path class="st2_facebook-70" d="M317.6,236.5L317.6,236.5l-123.9-13.6c-0.4-0.1-0.6-0.4-0.6-0.8c0.1-0.4,0.4-0.6,0.7-0.6l123.8,13.6&#10;&#9;&#9;c0.4,0,0.7,0.4,0.6,0.8C318.3,236.2,318,236.5,317.6,236.5z"/>
	<path class="st2_facebook-70" d="M312.6,255.7L312.6,255.7l-123.8-14.2c-0.4,0-0.7-0.4-0.6-0.8s0.4-0.7,0.8-0.6l123.8,14.2&#10;&#9;&#9;c0.4,0,0.7,0.4,0.6,0.8C313.3,255.5,313,255.7,312.6,255.7L312.6,255.7z"/>
	<path class="st2_facebook-70" d="M204.6,240.1L204.6,240.1l-2-0.1c-0.7,0-1.3-0.6-1.3-1.3c0-0.1,0-0.2,0-0.3l1.1-5.4c0.2-0.7,0.8-1.2,1.6-1.2&#10;&#9;&#9;l2,0.1c0.4,0,0.8,0.2,1,0.5c0.2,0.3,0.3,0.7,0.2,1.1l-1.1,5.4C206,239.5,205.4,240,204.6,240.1L204.6,240.1z M203.9,233.2&#10;&#9;&#9;c-0.1,0-0.1,0-0.1,0.1l-1.1,5.4h1.9c0.1,0,0.1,0,0.1-0.1l1.1-5.4H203.9L203.9,233.2z"/>
	<path class="st2_facebook-70" d="M215.3,240.6L215.3,240.6l-8.3-0.4c-0.4,0-0.7-0.3-0.7-0.7c0,0,0-0.1,0-0.1l1.1-5.6c0-0.1,0.1-0.3,0.2-0.4&#10;&#9;&#9;c0.8-0.8,1.6-1.8,2.4-2.8c2.1-2.6,3.4-4.1,4.6-3.8c0.3,0.1,0.6,0.3,0.8,0.7c0.4,0.9-0.4,2.8-1.1,4.1c1.2,0,2.4,0.2,3.5,0.6&#10;&#9;&#9;c0.5,0.2,1.6,0.8-1.9,8C215.8,240.5,215.6,240.7,215.3,240.6L215.3,240.6z M207.9,238.8l7,0.4c1-1.8,1.7-3.8,2.1-5.8&#10;&#9;&#9;c-1.3-0.3-2.5-0.4-3.8-0.4c-0.4,0-0.7-0.3-0.7-0.7c0-0.1,0-0.2,0.1-0.3c0.7-1.2,1.2-2.4,1.5-3.7c-1.1,1-2.1,2.1-3,3.3&#10;&#9;&#9;c-0.8,0.9-1.5,1.9-2.3,2.7L207.9,238.8L207.9,238.8z"/>
	<path class="st2_facebook-70" d="M284.9,307.5l-73.6-9.4c-2.3-0.2-4.1-2.3-3.8-4.7c0-0.3,0.1-0.5,0.2-0.8l0,0c0.8-2.7,3.4-4.5,6.2-4.2l73.6,9.2&#10;&#9;&#9;c2.4,0.2,4.2,2.3,4,4.8c0,0.3-0.1,0.6-0.1,0.8l0,0C290.5,306,287.7,307.8,284.9,307.5L284.9,307.5z"/>
	<path class="st3_facebook-70 targetColor" d="M269.8,278.4l-47.2-5.7c-4.4-0.4-7.7-4.2-7.3-8.6c0-0.5,0.1-1.1,0.3-1.6l0.9-3.3c1.5-5.1,6.4-8.5,11.8-8&#10;&#9;&#9;l47.2,5.5c4.5,0.3,7.9,4.2,7.6,8.7c0,0.6-0.1,1.1-0.3,1.7l-0.9,3.3C280.3,275.6,275.2,279,269.8,278.4L269.8,278.4z" style="fill: rgb(153, 255, 132);"/>
	<path class="st0_facebook-70" d="M286.8,300.2l0.4-1.4l-5.6-0.7l-0.4,1.4l-1.1-0.1l-1.4,5.2l7.9,1l1.4-5.3L286.8,300.2L286.8,300.2z M283,303.4&#10;&#9;&#9;c-0.8-0.1-1.4-0.8-1.3-1.6c0-0.1,0-0.2,0-0.3c0.3-0.9,1.2-1.5,2.1-1.4c0.8,0.1,1.4,0.8,1.3,1.6c0,0.1,0,0.2,0,0.3&#10;&#9;&#9;C284.9,303,284,303.5,283,303.4L283,303.4z"/>
	<path class="st2_facebook-70" d="M227.7,279L227.7,279l-12.7-1.5c-0.4,0-0.7-0.4-0.6-0.8c0-0.4,0.4-0.7,0.8-0.6l0,0l12.6,1.5&#10;&#9;&#9;c0.4,0,0.7,0.4,0.6,0.8c0,0,0,0,0,0C228.4,278.7,228.1,279,227.7,279L227.7,279z"/>
	<path class="st2_facebook-70" d="M245.3,281.1L245.3,281.1l-12.8-1.5c-0.4,0-0.7-0.4-0.6-0.8c0-0.4,0.4-0.7,0.8-0.6l12.7,1.5&#10;&#9;&#9;c0.4,0,0.7,0.4,0.6,0.8c0,0,0,0,0,0C246,280.9,245.7,281.1,245.3,281.1L245.3,281.1z"/>
	<path class="st1_facebook-70" d="M274,265.2L274,265.2l-46.6-5.5c-0.4,0-0.7-0.4-0.6-0.8c0-0.4,0.4-0.7,0.8-0.6l0,0l46.6,5.5&#10;&#9;&#9;c0.4,0,0.7,0.4,0.7,0.7S274.4,265.2,274,265.2L274,265.2z"/>
	<path class="st1_facebook-70" d="M265.8,270.6L265.8,270.6l-40-4.8c-0.4,0-0.7-0.4-0.6-0.8c0-0.4,0.4-0.7,0.8-0.6l39.9,4.8&#10;&#9;&#9;c0.4,0,0.7,0.4,0.7,0.7S266.2,270.6,265.8,270.6L265.8,270.6z"/>
	<path class="st2_facebook-70" d="M254.9,247c-0.4,0-0.7-0.4-2.1-2.7c-0.5,0-0.9,0-1.4-0.1c-2.4-0.1-4.5-1.3-6-3.2c-0.8-1.1-1.1-2.5-0.7-3.8&#10;&#9;&#9;c0.9-3.3,5.1-5.5,9.6-5c2.4,0.1,4.6,1.3,6,3.2c0.8,1.1,1.1,2.5,0.7,3.8l0,0c-0.7,2.1-2.4,3.8-4.6,4.4c-0.4,1.7-0.7,2.6-0.7,2.7&#10;&#9;&#9;c-0.1,0.3-0.3,0.5-0.6,0.6L254.9,247L254.9,247z M253.1,242.9c0.2,0,0.5,0.1,0.6,0.3c0.4,0.6,0.7,1.1,0.9,1.4&#10;&#9;&#9;c0.1-0.5,0.3-1.1,0.5-1.7c0.1-0.2,0.2-0.4,0.5-0.5c2.1-0.7,3.6-2,4-3.5l0,0c0.2-0.9,0.1-1.9-0.5-2.7c-1.2-1.5-3-2.4-5-2.6&#10;&#9;&#9;c-3.8-0.4-7.4,1.3-8.1,3.9c-0.2,0.9-0.1,1.9,0.5,2.7c1.2,1.5,3,2.5,5,2.6C252,242.9,252.6,242.9,253.1,242.9L253.1,242.9&#10;&#9;&#9;L253.1,242.9z M260.3,239.1L260.3,239.1z"/>
	<path class="st2_facebook-70" d="M251.1,238.2c-0.2,0.5-0.6,0.8-1.1,0.8c-0.4,0-0.8-0.4-0.7-0.8c0-0.1,0-0.1,0-0.2c0.1-0.5,0.6-0.8,1.2-0.8&#10;&#9;&#9;c0.4,0,0.7,0.4,0.7,0.8C251.2,238.1,251.2,238.2,251.1,238.2z"/>
	<path class="st2_facebook-70" d="M254,238.6c-0.2,0.5-0.6,0.8-1.2,0.8c-0.4,0-0.8-0.4-0.7-0.8c0-0.1,0-0.1,0-0.2c0.1-0.5,0.6-0.8,1.2-0.8&#10;&#9;&#9;c0.4,0,0.8,0.4,0.7,0.8C254,238.5,254,238.5,254,238.6z"/>
	<path class="st2_facebook-70" d="M256.9,238.9c-0.2,0.5-0.6,0.8-1.2,0.8c-0.4,0-0.8-0.4-0.7-0.8c0-0.1,0-0.1,0-0.2c0.1-0.5,0.6-0.8,1.2-0.8&#10;&#9;&#9;c0.4,0,0.8,0.4,0.7,0.8C256.9,238.8,256.9,238.8,256.9,238.9z"/>
	<path class="st2_facebook-70" d="M292.6,247.9c-0.2,0-0.3-0.1-0.5-0.2c-0.3-0.2-0.3-0.6-0.1-0.9c1.7-2.7,4.1-4.8,6.9-6.2l-0.5-1.2&#10;&#9;&#9;c-0.1-0.2-0.1-0.5,0.1-0.7c0.1-0.2,0.4-0.3,0.6-0.3l6.4,0.2c0.2,0,0.5,0.1,0.6,0.3c0.1,0.2,0.1,0.5,0,0.7l-2.6,5.6&#10;&#9;&#9;c-0.1,0.2-0.3,0.4-0.6,0.4c-0.2,0-0.5-0.1-0.6-0.3l-1.2-1.5c-2.9,0.8-5.6,2.1-8,3.8C292.9,247.8,292.7,247.9,292.6,247.9&#10;&#9;&#9;L292.6,247.9z M300.1,239.9l0.3,0.8c0.2,0.4,0,0.8-0.4,0.9c-1.6,0.7-3,1.7-4.3,2.9c1.7-0.8,3.5-1.5,5.4-2c0.3-0.1,0.6,0,0.7,0.2&#10;&#9;&#9;l0.8,1l1.7-3.6L300.1,239.9L300.1,239.9z"/>
	<path class="st2_facebook-70" d="M300.3,250.2L300.3,250.2l-9.6-1.1c-0.2,0-0.4-0.1-0.5-0.3c-0.1-0.2-0.1-0.4-0.1-0.6l2.2-8.6&#10;&#9;&#9;c0.1-0.3,0.4-0.6,0.8-0.5l4.3,0.5c0.4,0.1,0.6,0.4,0.6,0.8c-0.1,0.4-0.4,0.6-0.7,0.6l-3.7-0.4l-1.9,7.2l8.2,0.9l0.8-3.2&#10;&#9;&#9;c0.1-0.4,0.5-0.6,0.9-0.4c0.3,0.1,0.5,0.4,0.5,0.8l-1,3.8C300.9,250,300.6,250.2,300.3,250.2L300.3,250.2z"/>
	<path class="st2_facebook-70" d="M340.5,172.9L340.5,172.9l-134.6-12.8c-0.4,0-0.7-0.4-0.6-0.8c0-0.4,0.4-0.7,0.8-0.6l134.5,12.8&#10;&#9;&#9;c0.4,0.1,0.6,0.4,0.6,0.8C341,172.6,340.8,172.8,340.5,172.9L340.5,172.9z"/>
	<path class="st3_facebook-70 targetColor" d="M231.7,155.1h-0.1l-4.8-0.3c-0.1,0-0.2-0.1-0.1-0.2l1.7-6.1c0.1-0.2,0.1-0.2,0.2-0.2l1.8,0.1&#10;&#9;&#9;c0.1,0,0.2,0,0.2-0.1c0.2-0.6,0.5-1.3,0.8-1.9c0.1-0.1,0.1-0.3,0.2-0.5s0-0.2-0.1-0.2l-2.2-0.2c-0.1,0-0.2-0.1-0.1-0.2&#10;&#9;&#9;c0.2-0.6,0.3-1.1,0.5-1.7c0.1-0.5,0.6-0.8,1.1-0.8l1.5,0.1c0.1,0,0.2,0,0.2-0.2c0.2-0.7,0.4-1.4,0.6-2.1c0-0.1,0-0.2-0.1-0.2&#10;&#9;&#9;c-0.8-0.1-1.6-0.2-2.4-0.2c-1.1,0-2.2,0.5-2.8,1.4c-0.3,0.4-0.6,0.9-0.7,1.4l-0.5,1.9c0,0.1-0.1,0.2-0.2,0.2l-1.8-0.2&#10;&#9;&#9;c-0.1,0-0.2,0-0.2,0.1l-0.7,2.4c0,0.1,0,0.2,0.1,0.2l1.9,0.1c0.1,0,0.1,0.1,0.1,0.2c-0.6,2.1-1.2,4.1-1.7,6.2&#10;&#9;&#9;c0,0.1-0.1,0.2-0.2,0.1l-8.6-0.6h-0.1l4.7-17.1l16.7,1.5C234.9,143.9,233.3,149.5,231.7,155.1L231.7,155.1z" style="fill: rgb(153, 255, 132);"/>
</g>
<g id="Lies_facebook-70">
	<path class="st1_facebook-70" d="M178.3,126.7l-85.6,15.6c-8.7,1.6-14.4,9.9-12.8,18.6l10.9,60c1.6,8.7,9.9,14.4,18.6,12.9l73.3-13.3l14.1,12.1&#10;&#9;&#9;l-0.8-14.6c8.1-2.1,13.2-10.1,11.8-18.3l-10.9-60C195.3,130.9,187,125.2,178.3,126.7L178.3,126.7z"/>
	<path class="st0_facebook-70" d="M106.5,234.7c-8,0-14.9-5.8-16.4-13.7l-10.9-60c-1.7-9.1,4.3-17.7,13.4-19.4c0,0,0,0,0,0l85.6-15.6&#10;&#9;&#9;c9.1-1.6,17.7,4.4,19.4,13.4l10.9,60c1.5,8.4-3.5,16.6-11.7,19l0.7,14.1c0,0.3-0.1,0.5-0.4,0.7c-0.3,0.1-0.5,0.1-0.8-0.1&#10;&#9;&#9;l-13.9-11.9l-72.9,13.3C108.5,234.6,107.5,234.7,106.5,234.7L106.5,234.7z M178.4,127.4L92.9,143c-8.3,1.5-13.8,9.4-12.3,17.7&#10;&#9;&#9;l10.9,60c1.5,8.3,9.5,13.8,17.8,12.3l73.3-13.3c0.2,0,0.4,0,0.6,0.2l12.9,11.1l-0.7-13c0-0.3,0.2-0.6,0.5-0.7&#10;&#9;&#9;c7.8-2,12.7-9.6,11.2-17.5l-10.9-60C194.7,131.4,186.8,125.9,178.4,127.4L178.4,127.4L178.4,127.4z"/>
	<polygon class="st3_facebook-70 targetColor" points="107.8,182.5 128.7,178.7 134.2,209 116.1,212.3 &#9;" style="fill: rgb(153, 255, 132);"/>
	<path class="st0_facebook-70" d="M116.1,213c-0.3,0-0.6-0.2-0.7-0.5l-8.3-29.8c0-0.2,0-0.4,0.1-0.6c0.1-0.2,0.3-0.3,0.5-0.3l20.9-3.8&#10;&#9;&#9;c0.4-0.1,0.7,0.2,0.8,0.5c0,0,0,0,0,0l5.5,30.3c0.1,0.4-0.2,0.7-0.5,0.8c0,0,0,0,0,0l-18.1,3.3C116.2,213,116.1,213,116.1,213z&#10;&#9;&#9; M108.7,183.1l7.9,28.4l16.8-3.1l-5.2-28.9L108.7,183.1L108.7,183.1z"/>
	<circle class="st0_facebook-70" cx="127.6" cy="204.8" r="2.4"/>
	<path class="st1_facebook-70" d="M129,180.6c0,0,1.2-0.4,4.3-5s6.7-15.7,6.8-17.6s-1.9-9-1.1-10.7s5.1-3.7,7.5-1.4s5.2,7.2,5.6,9.7&#10;&#9;&#9;s0.6,12.8,0.6,12.8l20.9-3.8c3.1-0.6,4.1,1.5,4.4,3.9s-2,5.7-2,5.7s2.7,0.5,2.6,4.1c0,2.1-1.1,4-2.7,5.2c0,0,2,0.9,1.5,3.7&#10;&#9;&#9;c-0.3,1.7-1.2,3.1-2.5,4.1c0,0,2.6,0.8,1.9,3.9s-2.1,5.4-4.6,5.9s-28.1,5.1-30.5,5.6s-2.8-0.8-4.1-1c-1.3-0.1-2.6,0.1-3.8,0.4&#10;&#9;&#9;L129,180.6L129,180.6z"/>
	<path class="st0_facebook-70" d="M140.7,207.6c-0.8,0-1.6-0.2-2.3-0.7c-0.3-0.2-0.6-0.3-1-0.4c-1.2-0.1-2.4,0.1-3.6,0.4c-0.2,0-0.4,0-0.5-0.1&#10;&#9;&#9;c-0.2-0.1-0.3-0.3-0.3-0.5l-4.6-25.5c-0.1-0.3,0.1-0.7,0.4-0.8c0.1-0.1,1.3-0.7,4-4.7c3.1-4.6,6.6-15.6,6.7-17.2&#10;&#9;&#9;c-0.1-1.2-0.3-2.4-0.5-3.6c-0.7-3.6-1.1-6.2-0.5-7.4c1-1.5,2.5-2.4,4.2-2.7c1.6-0.3,3.2,0.1,4.4,1.1c2.7,2.5,5.4,7.6,5.9,10.1&#10;&#9;&#9;c0.4,2.1,0.5,9.5,0.6,12l20.1-3.6c1.2-0.3,2.4-0.1,3.4,0.6c1.1,1,1.8,2.4,1.8,3.9c0.2,1.9-1,4.2-1.7,5.4c1.6,0.9,2.5,2.7,2.2,4.5&#10;&#9;&#9;c-0.1,1.9-0.9,3.8-2.3,5.1c1,1,1.3,2.5,1,3.9c-0.3,1.5-1,2.8-2,3.9c1.3,1,1.8,2.7,1.4,4.2c-0.8,3.7-2.5,5.9-5.2,6.5&#10;&#9;&#9;c-2.1,0.4-18.6,3.4-26.6,4.9l-4,0.7c-0.4,0.1-0.7,0.1-1.1,0.1L140.7,207.6z M136.8,205c0.3,0,0.5,0,0.8,0.1c0.5,0.1,1,0.3,1.5,0.6&#10;&#9;&#9;c0.7,0.5,1.6,0.7,2.4,0.4l4-0.7c8-1.4,24.5-4.4,26.5-4.8s3.5-2.2,4.1-5.4c0.5-2.4-1.2-3.1-1.5-3.1c-0.3-0.1-0.5-0.3-0.5-0.6&#10;&#9;&#9;c0-0.3,0.1-0.5,0.3-0.7c1.2-0.9,2-2.2,2.2-3.7c0.4-2.2-0.9-2.9-1.1-3c-0.2-0.1-0.4-0.3-0.4-0.6c0-0.3,0.1-0.5,0.3-0.6&#10;&#9;&#9;c1.5-1.1,2.4-2.8,2.4-4.6c0.1-2.9-1.8-3.3-2-3.4c-0.2,0-0.4-0.2-0.5-0.4c-0.1-0.2-0.1-0.5,0.1-0.7c0.6-0.9,2.1-3.5,1.9-5.2&#10;&#9;&#9;c0-1.1-0.4-2.1-1.2-2.9c-0.7-0.4-1.5-0.6-2.3-0.4l-20.9,3.8c-0.2,0-0.4,0-0.6-0.1c-0.2-0.1-0.3-0.3-0.3-0.5&#10;&#9;&#9;c0-0.1-0.1-10.2-0.6-12.6s-3-7.1-5.4-9.3c-0.9-0.8-2.1-1-3.2-0.8c-1.3,0.2-2.5,0.9-3.2,1.9c-0.4,0.8,0.2,4.2,0.6,6.5&#10;&#9;&#9;c0.3,1.3,0.5,2.7,0.6,4c-0.1,2-3.8,13.3-6.9,17.9c-1.1,1.9-2.5,3.6-4.2,5l4.4,24.4C135.1,205.2,135.9,205.1,136.8,205L136.8,205z"/>
	<path class="st1_facebook-70" d="M169.6,303.6l18-10.9l-18.8,3.7l-0.6-5.2c-0.7-5.6-5.7-9.7-11.4-9c0,0,0,0,0,0l-62.2,7.2&#10;&#9;&#9;c-5.6,0.7-9.7,5.7-9,11.4c0,0,0,0,0,0l4.3,36.7c0.7,5.6,5.7,9.7,11.4,9c0,0,0,0,0,0l62.2-7.2c5.6-0.7,9.7-5.7,9-11.4c0,0,0,0,0,0&#10;&#9;&#9;L169.6,303.6L169.6,303.6z"/>
	<path class="st0_facebook-70" d="M100.1,347.4c-5.6,0-10.2-4.2-10.9-9.7L84.9,301c-0.7-6,3.6-11.4,9.6-12.1l62.2-7.2c6-0.7,11.4,3.6,12.1,9.6&#10;&#9;&#9;l0.5,4.5l18.1-3.6c0.4-0.1,0.7,0.2,0.8,0.6c0.1,0.3-0.1,0.6-0.3,0.7L170.4,304l2.8,24c0.7,6-3.6,11.4-9.6,12.1l-62.2,7.2&#10;&#9;&#9;C100.9,347.4,100.5,347.5,100.1,347.4L100.1,347.4z M158,283c-0.4,0-0.7,0-1.1,0.1l-62.2,7.2c-5.2,0.6-9,5.4-8.4,10.6l4.3,36.7&#10;&#9;&#9;c0.6,5.2,5.4,9,10.6,8.4l62.2-7.2c5.2-0.6,9-5.4,8.4-10.6l-2.8-24.4c0-0.3,0.1-0.5,0.3-0.7l14.6-8.8l-14.9,3c-0.2,0-0.4,0-0.6-0.1&#10;&#9;&#9;c-0.2-0.1-0.3-0.3-0.3-0.5l-0.6-5.2C166.9,286.7,162.8,283,158,283L158,283z"/>
	<polygon class="st3_facebook-70 targetColor" points="102.8,314.6 116.3,313.2 118.5,332.7 106.8,334 &#9;" style="fill: rgb(153, 255, 132);"/>
	<path class="st0_facebook-70" d="M106.8,334.7c-0.3,0-0.6-0.2-0.7-0.6l-4-19.4c0-0.2,0-0.4,0.1-0.5c0.1-0.2,0.3-0.3,0.5-0.3l13.5-1.5&#10;&#9;&#9;c0.4,0,0.7,0.2,0.8,0.6l2.2,19.5c0,0.4-0.2,0.7-0.6,0.8L106.8,334.7L106.8,334.7z M103.7,315.3l3.7,18l10.3-1.1l-2-18.2&#10;&#9;&#9;L103.7,315.3L103.7,315.3z"/>
	<circle class="st0_facebook-70" cx="114.5" cy="329.7" r="1.6"/>
	<path class="st1_facebook-70" d="M116.5,314.4c0,0,0.8-0.2,3-3c2.2-3.4,4-7,5.1-10.9c0.1-1.2-0.8-5.9-0.2-6.9s3.4-2.1,4.8-0.5&#10;&#9;&#9;c1.6,1.9,2.7,4.1,3.2,6.4c0.2,1.6-0.2,8.2-0.2,8.2l13.5-1.5c2-0.2,2.6,1.1,2.6,2.7s-1.6,3.5-1.6,3.5c1.1,0.4,1.8,1.6,1.5,2.7&#10;&#9;&#9;c-0.1,1.3-0.9,2.5-2,3.2c0.8,0.5,1.2,1.5,0.8,2.4c-0.2,1-0.9,1.9-1.8,2.5c1,0.4,1.5,1.6,1.1,2.6c-0.6,2-1.6,3.3-3.2,3.6&#10;&#9;&#9;s-18.1,2-19.7,2.2s-1.7-0.6-2.6-0.8c-0.8-0.1-1.6-0.1-2.5,0.1L116.5,314.4z"/>
	<path class="st0_facebook-70" d="M123,332.4c-0.7,0-1.3-0.2-1.8-0.6c-0.1-0.1-0.3-0.2-0.5-0.3c-0.7-0.1-1.5-0.1-2.2,0.1c-0.2,0-0.4,0-0.5-0.1&#10;&#9;&#9;c-0.2-0.1-0.2-0.3-0.3-0.5l-1.8-16.5c0-0.3,0.2-0.6,0.5-0.7c0.1,0,0.8-0.5,2.7-2.8c2.2-3.3,3.8-6.8,5-10.5c0-0.8-0.1-1.5-0.2-2.3&#10;&#9;&#9;c-0.3-2.4-0.4-4.1,0-4.9c0.7-1,1.8-1.6,3-1.7c1.1-0.2,2.2,0.2,3,1c1.7,2,2.8,4.3,3.4,6.8c0.1,1.3-0.1,5.6-0.1,7.5l12.7-1.4&#10;&#9;&#9;c0.8-0.1,1.7,0.1,2.4,0.6c0.7,0.7,1.1,1.7,1.1,2.8c-0.1,1.2-0.5,2.3-1.2,3.3c0.9,0.7,1.3,1.9,1.1,3.1c-0.1,1.2-0.7,2.3-1.6,3.2&#10;&#9;&#9;c0.5,0.7,0.6,1.7,0.4,2.5c-0.2,0.9-0.7,1.7-1.3,2.3c0.7,0.8,0.9,1.8,0.6,2.8c-0.7,2.4-1.9,3.8-3.8,4.1c-1.4,0.2-12.1,1.4-17.3,1.9&#10;&#9;&#9;l-2.4,0.3L123,332.4L123,332.4z M120,330c0.3,0,0.7,0,1,0.1c0.4,0.1,0.7,0.3,1,0.5c0.4,0.3,0.9,0.4,1.4,0.3l2.4-0.3&#10;&#9;&#9;c4.8-0.5,16-1.7,17.3-1.9s2.1-1.2,2.6-3.1c0.4-1.3-0.5-1.7-0.6-1.8c-0.4-0.1-0.6-0.5-0.4-0.9c0.1-0.2,0.2-0.3,0.3-0.4&#10;&#9;&#9;c0.7-0.5,1.2-1.2,1.4-2.1c0.3-1.2-0.4-1.6-0.4-1.6c-0.2-0.1-0.4-0.4-0.4-0.6c0-0.3,0.1-0.5,0.4-0.6c0.9-0.6,1.5-1.6,1.6-2.6&#10;&#9;&#9;c0.2-1.6-0.8-1.9-0.9-2c-0.4-0.1-0.6-0.5-0.5-0.9c0-0.1,0.1-0.2,0.1-0.2c0.7-0.9,1.2-2,1.4-3.1c0-0.6-0.2-1.2-0.6-1.7&#10;&#9;&#9;c-0.4-0.3-0.8-0.4-1.3-0.3l-13.5,1.5c-0.2,0-0.4-0.1-0.6-0.2c-0.2-0.1-0.2-0.3-0.2-0.5c0.1-2.2,0.3-6.8,0.2-8c-0.5-2.2-1.5-4.3-3-6&#10;&#9;&#9;c-0.5-0.5-1.1-0.7-1.8-0.6c-0.8,0.1-1.5,0.4-2,1c-0.3,0.5,0,2.8,0.2,4c0.1,0.9,0.2,1.7,0.2,2.6c-1.2,4-2.9,7.8-5.3,11.2&#10;&#9;&#9;c-0.8,1.1-1.7,2.1-2.8,2.9l1.7,15.3C119.2,330.1,119.6,330,120,330L120,330z"/>
	<path class="st1_facebook-70" d="M418.9,344.5l-10-67.3c-0.7-4.7-5-7.9-9.7-7.2c0,0,0,0,0,0l-84.5,12.6l-20.9-15.4l8.8,17.3&#10;&#9;&#9;c-3.9,1.3-6.3,5.2-5.7,9.3l10,67.3c0.7,4.7,5,7.9,9.7,7.2c0,0,0,0,0,0l95.1-14.1C416.4,353.5,419.6,349.1,418.9,344.5&#10;&#9;&#9;C418.9,344.5,418.9,344.5,418.9,344.5L418.9,344.5z"/>
	<path class="st0_facebook-70" d="M315.4,369.1c-4.6,0-8.4-3.3-9.1-7.9l-10-67.3c-0.6-4.1,1.6-8.1,5.4-9.8l-8.4-16.6c-0.2-0.3-0.1-0.6,0.2-0.9&#10;&#9;&#9;c0.3-0.2,0.6-0.2,0.9,0l20.6,15.2l84.2-12.5c5-0.7,9.7,2.7,10.5,7.8l10,67.3l0,0c0.7,5-2.7,9.7-7.8,10.5L316.8,369&#10;&#9;&#9;C316.3,369.1,315.8,369.1,315.4,369.1L315.4,369.1z M295.8,269.5l7.4,14.7c0.1,0.2,0.1,0.4,0,0.6c-0.1,0.2-0.2,0.3-0.4,0.4&#10;&#9;&#9;c-3.6,1.2-5.8,4.8-5.2,8.5l10,67.3c0.6,4.3,4.6,7.2,8.9,6.6c0,0,0,0,0,0l95.1-14.1c4.3-0.6,7.2-4.6,6.6-8.9l-10-67.3&#10;&#9;&#9;c-0.6-4.3-4.6-7.2-8.9-6.6l-84.5,12.6c-0.2,0-0.4,0-0.5-0.1L295.8,269.5L295.8,269.5z"/>
	<polygon class="st3_facebook-70 targetColor" points="394.2,313.1 371.6,314.3 373.3,347.1 392.9,346 &#9;" style="fill: rgb(153, 255, 132);"/>
	<path class="st0_facebook-70" d="M373.3,347.8c-0.4,0-0.7-0.3-0.7-0.7l-1.7-32.8c0-0.4,0.3-0.7,0.7-0.7c0,0,0,0,0,0l22.6-1.2&#10;&#9;&#9;c0.2,0,0.4,0.1,0.5,0.2c0.1,0.1,0.2,0.3,0.2,0.5l-1.3,32.9c0,0.4-0.3,0.6-0.7,0.7L373.3,347.8L373.3,347.8z M372.3,315l1.7,31.4&#10;&#9;&#9;l18.2-1l1.3-31.5L372.3,315L372.3,315z"/>
	<circle class="st0_facebook-70" cx="379.1" cy="341.1" r="2.6"/>
	<path class="st1_facebook-70" d="M371.7,316.3c0,0-1.4-0.1-5.7-4.1s-10.9-14.7-11.4-16.6s-0.2-9.9-1.5-11.4s-6.1-2.6-8.1,0.4s-3.6,8.8-3.5,11.5&#10;&#9;&#9;s2.5,13.4,2.5,13.4l-22.7,1.2c-3.3,0.2-3.9,2.6-3.6,5.1s3.5,5.4,3.5,5.4s-2.7,1.2-1.7,4.9c0.6,2.1,2.1,3.9,4.1,4.7&#10;&#9;&#9;c0,0-1.9,1.4-0.6,4.2c0.7,1.7,2,3,3.6,3.7c0,0-2.5,1.4-1,4.6s3.5,5.1,6.3,5s30.4-1.6,33.1-1.7s2.7-1.5,4-2.1&#10;&#9;&#9;c1.3-0.4,2.7-0.6,4.1-0.5L371.7,316.3L371.7,316.3z"/>
	<path class="st0_facebook-70" d="M331.9,349c-2.9,0-5.1-1.8-6.8-5.4c-0.9-1.5-0.7-3.4,0.4-4.7c-1.3-0.8-2.4-2.1-3-3.5c-0.7-1.4-0.6-3,0.1-4.3&#10;&#9;&#9;c-1.8-1-3.1-2.8-3.6-4.8c-0.7-1.8-0.2-3.9,1.2-5.2c-1-1-2.8-3.2-3.1-5.2c-0.3-1.5,0-3.2,0.9-4.4c0.9-1,2.1-1.5,3.4-1.5l21.9-1.1&#10;&#9;&#9;c-0.6-2.6-2.2-10.4-2.4-12.7c-0.1-2.7,1.4-8.6,3.6-11.9c1-1.4,2.5-2.2,4.2-2.2c2-0.1,4.1,0.6,5,1.8s1.1,3.9,1.2,7.7&#10;&#9;&#9;c0,1.3,0.1,2.6,0.3,3.9c0.5,1.6,6.9,12.3,11.2,16.2c3.9,3.6,5.3,3.9,5.3,3.9c0.3,0,0.6,0.3,0.6,0.6l1.5,27.7c0,0.2-0.1,0.4-0.2,0.5&#10;&#9;&#9;c-0.1,0.1-0.3,0.2-0.5,0.2l0,0c-1.3,0-2.6,0.2-3.8,0.5c-0.3,0.2-0.7,0.4-0.9,0.7c-0.9,0.9-2.1,1.5-3.4,1.5l-4.4,0.2&#10;&#9;&#9;c-8.6,0.5-26.4,1.5-28.7,1.5L331.9,349L331.9,349z M349.1,283.5h-0.3c-1.2,0-2.4,0.6-3.1,1.6c-1.9,2.9-3.5,8.6-3.4,11&#10;&#9;&#9;c0.1,2.6,2.5,13.2,2.5,13.3c0,0.2,0,0.4-0.1,0.6c-0.1,0.2-0.3,0.3-0.5,0.3l-22.7,1.2c-0.9,0-1.8,0.3-2.4,1c-0.6,1-0.9,2.2-0.6,3.4&#10;&#9;&#9;c0.3,1.9,2.5,4.2,3.3,5c0.2,0.2,0.3,0.4,0.2,0.6c0,0.2-0.2,0.4-0.4,0.5c-0.2,0.1-2.1,1.1-1.3,4.1c0.5,1.9,1.8,3.5,3.7,4.2&#10;&#9;&#9;c0.2,0.1,0.4,0.3,0.5,0.5c0,0.3-0.1,0.5-0.3,0.7c0,0-1.4,1.1-0.4,3.4c0.6,1.5,1.8,2.7,3.2,3.3c0.3,0.1,0.4,0.3,0.5,0.6&#10;&#9;&#9;c0,0.3-0.1,0.5-0.4,0.7c-0.2,0.1-1.9,1.2-0.8,3.7c1.5,3.1,3.3,4.7,5.6,4.6s20-1,28.6-1.5l4.4-0.2c0.9,0,1.8-0.4,2.5-1.1&#10;&#9;&#9;c0.4-0.4,0.8-0.8,1.4-1c1.2-0.4,2.4-0.6,3.6-0.6l-1.4-26.5c-0.8-0.3-2.5-1.3-5.5-4.1c-4.3-4-11-14.9-11.6-16.9&#10;&#9;&#9;c-0.2-1.4-0.4-2.8-0.4-4.2c-0.1-2.5-0.3-6.1-0.9-6.9C351.7,283.8,350.4,283.4,349.1,283.5L349.1,283.5z"/>
	<path class="st1_facebook-70" d="M413.1,171.1l-70.9-16.1c-5-1.1-10,2-11.1,7l-8.5,37.7l-18.3,7l16.4,1.2l-0.6,2.8c-1.1,5,2,10,7,11.1&#10;&#9;&#9;l70.9,16.1c5,1.1,10-2,11.1-7l11.1-48.8C421.3,177.2,418.1,172.2,413.1,171.1L413.1,171.1z"/>
	<path class="st0_facebook-70" d="M400,239c-0.8,0-1.5-0.1-2.2-0.2l-70.9-16.1c-5.4-1.2-8.7-6.6-7.5-11.9l0.5-2l-15.6-1.2&#10;&#9;&#9;c-0.3,0-0.6-0.3-0.6-0.6c0-0.3,0.1-0.6,0.4-0.8l18-6.9l8.5-37.3c1.2-5.4,6.6-8.7,11.9-7.5l70.9,16.1l0,0c5.4,1.2,8.7,6.6,7.5,11.9&#10;&#9;&#9;l-11.1,48.8C408.7,235.7,404.7,239,400,239z M307.5,206.3l13.3,1.1c0.2,0,0.4,0.1,0.5,0.3c0.1,0.2,0.2,0.4,0.1,0.6l-0.6,2.8&#10;&#9;&#9;c-1,4.6,1.8,9.2,6.5,10.3l70.9,16.1c4.6,1.1,9.2-1.8,10.3-6.5c0,0,0,0,0,0l11.1-48.8c1.1-4.6-1.8-9.2-6.4-10.3c0,0,0,0,0,0&#10;&#9;&#9;l-70.9-16.1c-4.6-1.1-9.2,1.8-10.3,6.5c0,0,0,0,0,0l-8.5,37.7c-0.1,0.2-0.2,0.4-0.4,0.5L307.5,206.3L307.5,206.3z"/>
	<polygon class="st3_facebook-70 targetColor" points="399.1,198 381,195.5 377.4,221.7 393,223.9 &#9;" style="fill: rgb(153, 255, 132);"/>
	<path class="st0_facebook-70" d="M393,224.6h-0.1l-15.6-2.2c-0.4-0.1-0.6-0.4-0.6-0.8l3.6-26.2c0.1-0.4,0.4-0.6,0.8-0.6l18.1,2.5&#10;&#9;&#9;c0.2,0,0.4,0.1,0.5,0.3c0.1,0.2,0.2,0.4,0.1,0.6l-6,25.8C393.6,224.3,393.3,224.5,393,224.6L393,224.6z M378.1,221.1l14.3,2&#10;&#9;&#9;l5.7-24.5l-16.6-2.3L378.1,221.1L378.1,221.1z"/>
	<circle class="st0_facebook-70" cx="382.8" cy="217.8" r="2.1"/>
	<path class="st1_facebook-70" d="M380.8,197.1c0,0-1.1-0.3-3.9-4.1s-6.4-13.2-6.5-14.8s1.3-7.8,0.6-9.2s-4.5-3-6.5-0.9&#10;&#9;&#9;c-2.2,2.4-3.7,5.4-4.5,8.5c-0.3,2.1,0,11,0,11l-18.1-2.5c-2.6-0.4-3.5,1.4-3.6,3.5s2,4.8,2,4.8s-2.3,0.5-2.1,3.6&#10;&#9;&#9;c0.1,1.8,1.1,3.4,2.5,4.4c-1.1,0.7-1.6,2-1.1,3.2c0.3,1.4,1.1,2.7,2.3,3.5c-1.4,0.5-2,2.1-1.5,3.4c0.7,2.7,2,4.5,4.2,4.9&#10;&#9;&#9;s24.3,3.4,26.4,3.6s2.4-0.8,3.5-1c1.1-0.1,2.2,0,3.3,0.2L380.8,197.1L380.8,197.1z"/>
	<path class="st0_facebook-70" d="M371.6,220.8c-0.3,0-0.5,0-0.8-0.1l-3.3-0.4c-6.9-0.9-21.4-2.9-23.2-3.2c-2.4-0.4-4-2.3-4.8-5.5&#10;&#9;&#9;c-0.4-1.3,0-2.8,1-3.7c-0.9-0.9-1.5-2-1.8-3.2c-0.3-1.2-0.1-2.4,0.7-3.4c-1.2-1.1-2-2.7-2.1-4.3c-0.3-1.6,0.4-3.1,1.7-4&#10;&#9;&#9;c-1-1.3-1.5-2.9-1.6-4.6c0-1.3,0.5-2.6,1.4-3.5c0.9-0.6,1.9-0.9,3-0.7l17.3,2.4c-0.1-2.3-0.2-8.5,0.1-10.3c0.3-2.4,2.7-6.9,4.7-8.9&#10;&#9;&#9;c1-1,2.4-1.4,3.8-1.2c1.5,0.2,2.9,1,3.8,2.2c0.5,1,0.3,3.2-0.2,6.4c-0.2,1-0.3,2.1-0.3,3.1c0.1,1.4,3.6,10.7,6.4,14.5&#10;&#9;&#9;c2.5,3.4,3.5,3.9,3.6,3.9c0.3,0.1,0.5,0.4,0.5,0.8l-3,22.1c0,0.2-0.1,0.4-0.3,0.5c-0.2,0.1-0.4,0.2-0.5,0.1c-1-0.2-2-0.3-3-0.2&#10;&#9;&#9;c-0.3,0.1-0.5,0.2-0.8,0.4C373.1,220.6,372.4,220.8,371.6,220.8L371.6,220.8z M341.2,185.7c-0.5,0-1,0.1-1.4,0.4&#10;&#9;&#9;c-0.6,0.7-0.9,1.6-0.9,2.5c-0.1,1.5,1.3,3.6,1.8,4.4c0.1,0.2,0.2,0.4,0.1,0.7c-0.1,0.2-0.3,0.4-0.5,0.4c-0.2,0-1.7,0.5-1.5,2.9&#10;&#9;&#9;c0.1,1.5,0.9,3,2.2,3.8c0.3,0.2,0.5,0.6,0.3,0.9c-0.1,0.1-0.2,0.2-0.3,0.3c-0.1,0.1-1.2,0.7-0.8,2.5c0.2,1.2,1,2.3,2,3&#10;&#9;&#9;c0.2,0.1,0.4,0.4,0.3,0.7c0,0.3-0.2,0.5-0.5,0.6c-1,0.4-1.5,1.6-1.1,2.6c0,0,0,0,0,0c0.7,2.6,1.9,4.1,3.6,4.4s16.2,2.3,23.1,3.2&#10;&#9;&#9;l3.3,0.4c0.7,0.2,1.4,0,2-0.4c0.4-0.3,0.8-0.5,1.3-0.6c0.9-0.1,1.9-0.1,2.9,0.1l2.9-20.9c-1.4-1.2-2.7-2.5-3.7-4.1&#10;&#9;&#9;c-2.8-3.9-6.5-13.5-6.6-15.2c0-1.2,0.1-2.3,0.3-3.4c0.3-1.8,0.7-4.9,0.3-5.5c-0.7-0.8-1.7-1.4-2.8-1.5c-0.9-0.2-1.9,0.1-2.6,0.8&#10;&#9;&#9;c-2.1,2.3-3.5,5.1-4.3,8.1c-0.3,2.1,0,10.8,0,10.9c0,0.2-0.1,0.4-0.2,0.5c-0.1,0.1-0.4,0.2-0.6,0.2l-18.1-2.5&#10;&#9;&#9;C341.6,185.7,341.4,185.7,341.2,185.7L341.2,185.7z"/>
</g>
</svg>