<svg id="_0190_seo" data-name="0190_seo" xmlns="http://www.w3.org/2000/svg" viewBox="0 0 500 500" data-imageid="seo-52" imageName="SEO" class="illustrations_image" style="width: 188px;"><defs><style>.cls-1_seo-52{fill:#d1d3d4;}.cls-2_seo-52{fill:#fff;}.cls-3_seo-52{fill:#231f20;}.cls-4_seo-52{fill:#68e1fd;}</style></defs><path id="Floor_seo-52" class="cls-1_seo-52" d="M427.27,346.74h-398a.7.7,0,0,1,0-1.4h398a.7.7,0,0,1,0,1.4Z"/><g id="Monitor_seo-52"><path class="cls-2_seo-52" d="M323.05,307.79l-7.25,59.28H194.93s-1.54-7.39,5.33-8.87c12.33-2.66,17.23-5,23.28-11C234.7,336,233.82,308,233.82,308Z"/><path class="cls-3_seo-52" d="M315.8,367.77H194.93a.69.69,0,0,1-.68-.56c0-.08-1.6-8.08,5.86-9.69,12.24-2.64,17-4.87,22.93-10.83,10.82-10.81,10.09-38.4,10.08-38.68a.72.72,0,0,1,.2-.5.68.68,0,0,1,.5-.22l89.23-.2h0a.7.7,0,0,1,.53.23.73.73,0,0,1,.17.55l-7.25,59.28A.7.7,0,0,1,315.8,367.77Zm-120.27-1.4H315.18l7.08-57.88-87.72.2c.06,4.57-.13,28.62-10.51,39-6.13,6.12-11.21,8.53-23.62,11.2C195.28,360,195.35,364.72,195.53,366.37Z"/><path class="cls-3_seo-52" d="M430.19,299.9,432,276.76l12.54-162.27a7.35,7.35,0,0,0-7.39-8.09H140.3a8.86,8.86,0,0,0-8.64,8.09L117.34,299.9a7.34,7.34,0,0,0,7.38,8.09H421.55A8.85,8.85,0,0,0,430.19,299.9Z"/><path class="cls-3_seo-52" d="M421.55,308.69H124.72a8,8,0,0,1-6-2.55,8.21,8.21,0,0,1-2.12-6.29L131,114.44a9.57,9.57,0,0,1,9.33-8.74H437.13a8,8,0,0,1,6,2.56,8.19,8.19,0,0,1,2.12,6.29L430.88,300A9.56,9.56,0,0,1,421.55,308.69ZM140.3,107.1a8.15,8.15,0,0,0-7.94,7.45L118,300a6.8,6.8,0,0,0,1.76,5.23,6.63,6.63,0,0,0,4.93,2.11H421.55a8.15,8.15,0,0,0,7.94-7.44h0l14.33-185.41a6.81,6.81,0,0,0-1.76-5.23,6.61,6.61,0,0,0-4.93-2.11Z"/><path class="cls-1_seo-52" d="M420.62,276.76H107.77l12.54-162.27A8.85,8.85,0,0,1,129,106.4H425.78a7.34,7.34,0,0,1,7.38,8.09Z"/><path class="cls-3_seo-52" d="M420.62,277.46H107.77a.69.69,0,0,1-.69-.75l12.54-162.27A9.57,9.57,0,0,1,129,105.7H425.78a8,8,0,0,1,6,2.56,8.18,8.18,0,0,1,2.12,6.29L421.32,276.81A.7.7,0,0,1,420.62,277.46Zm-312.09-1.4H420l12.49-161.62a6.81,6.81,0,0,0-1.76-5.23,6.63,6.63,0,0,0-4.93-2.11H129a8.15,8.15,0,0,0-7.94,7.45Z"/><polygon class="cls-2_seo-52" points="412.3 267.54 117.52 267.54 129.11 117.51 423.9 117.51 412.3 267.54"/><path class="cls-3_seo-52" d="M412.3,268.24H117.52A.69.69,0,0,1,117,268a.71.71,0,0,1-.19-.53l11.6-150a.69.69,0,0,1,.69-.64H423.9a.7.7,0,0,1,.51.22.74.74,0,0,1,.19.53l-11.6,150A.7.7,0,0,1,412.3,268.24Zm-294-1.4H411.65l11.49-148.63H129.76Z"/><path class="cls-2_seo-52" d="M410.2,308H113.37A7.34,7.34,0,0,1,106,299.9l1.78-23.14H420.62l-1.78,23.14A8.85,8.85,0,0,1,410.2,308Z"/><path class="cls-3_seo-52" d="M410.2,308.69H113.37a8,8,0,0,1-6-2.55,8.19,8.19,0,0,1-2.12-6.29l1.79-23.14a.69.69,0,0,1,.69-.65H420.62a.68.68,0,0,1,.52.23.67.67,0,0,1,.18.52L419.53,300A9.57,9.57,0,0,1,410.2,308.69ZM108.42,277.46,106.68,300a6.84,6.84,0,0,0,1.76,5.24,6.66,6.66,0,0,0,4.93,2.1H410.2a8.15,8.15,0,0,0,7.94-7.45l1.73-22.38Z"/><path class="cls-1_seo-52" d="M307.71,151.53H240.37a2.1,2.1,0,0,1,0-4.2h67.34a2.1,2.1,0,1,1,0,4.2Z"/><path class="cls-1_seo-52" d="M366.37,208.87H172.63a12,12,0,0,1-8.9-3.82,12.24,12.24,0,0,1-3.17-9.4l.63-8.24a14.36,14.36,0,0,1,14-13.11H368.94a12,12,0,0,1,8.9,3.81,12.29,12.29,0,0,1,3.17,9.4l-.64,8.25A14.36,14.36,0,0,1,366.37,208.87ZM175.19,175.7a12.93,12.93,0,0,0-12.6,11.81l-.64,8.25a10.91,10.91,0,0,0,2.8,8.34,10.6,10.6,0,0,0,7.88,3.37H366.37A13,13,0,0,0,379,195.65l.63-8.24a10.88,10.88,0,0,0-2.8-8.35,10.59,10.59,0,0,0-7.87-3.36Z"/><path class="cls-1_seo-52" d="M342.45,208.87h-.06a.68.68,0,0,1-.64-.75l2.56-33.17a.71.71,0,0,1,.75-.64.7.7,0,0,1,.64.75l-2.56,33.17A.7.7,0,0,1,342.45,208.87Z"/><path class="cls-1_seo-52" d="M364.25,197.62a7.44,7.44,0,0,1-5.55-2.38,7.63,7.63,0,0,1-2-5.86,8.92,8.92,0,0,1,8.69-8.13,7.44,7.44,0,0,1,5.55,2.38,7.63,7.63,0,0,1,2,5.86A8.91,8.91,0,0,1,364.25,197.62Zm1.16-15a7.48,7.48,0,0,0-7.29,6.84,6.27,6.27,0,0,0,1.61,4.8,6.06,6.06,0,0,0,4.52,1.93,7.48,7.48,0,0,0,7.29-6.84h0a6.26,6.26,0,0,0-1.61-4.8A6.06,6.06,0,0,0,365.41,182.65Z"/><path class="cls-1_seo-52" d="M349.52,201.91a.67.67,0,0,1-.55-.27.69.69,0,0,1,.13-1l9.21-7a.69.69,0,0,1,1,.13.71.71,0,0,1-.13,1l-9.21,7A.69.69,0,0,1,349.52,201.91Z"/><path class="cls-1_seo-52" d="M369.62,224.08H170.25a.7.7,0,0,1,0-1.4H369.62a.7.7,0,0,1,0,1.4Z"/><path class="cls-1_seo-52" d="M369,232H169.64a.7.7,0,0,1,0-1.4H369a.7.7,0,0,1,0,1.4Z"/><path class="cls-1_seo-52" d="M336.91,240H169a.7.7,0,0,1,0-1.4H336.91a.7.7,0,1,1,0,1.4Z"/><path class="cls-1_seo-52" d="M262.33,301.62a8.43,8.43,0,0,1-6.26-2.69,8.64,8.64,0,0,1-2.23-6.61,10.06,10.06,0,0,1,9.81-9.18,8.41,8.41,0,0,1,6.26,2.68,8.6,8.6,0,0,1,2.23,6.61h0A10.07,10.07,0,0,1,262.33,301.62Zm1.32-17.08a8.63,8.63,0,0,0-8.41,7.89A7.21,7.21,0,0,0,257.1,298a7,7,0,0,0,5.23,2.24,8.65,8.65,0,0,0,8.42-7.9,7.25,7.25,0,0,0-1.87-5.55A7,7,0,0,0,263.65,284.54Zm7.8,7.84h0Z"/><path class="cls-3_seo-52" d="M317.7,307.79s-5.23,29.38-11.38,40.53c-3.58,6.49-14.47,8.94-21.2,12-4,1.8-3.61,6.78-3.61,6.78H315.8l7.25-59.28Z"/><path class="cls-3_seo-52" d="M315.8,367.77H281.51a.71.71,0,0,1-.7-.65c0-.22-.38-5.49,4-7.47,1.63-.73,3.48-1.42,5.43-2.15,6-2.26,12.85-4.81,15.44-9.52,6-10.92,11.26-40,11.31-40.32a.7.7,0,0,1,.69-.57h5.35a.69.69,0,0,1,.53.23.73.73,0,0,1,.17.55l-7.25,59.28A.7.7,0,0,1,315.8,367.77Zm-33.59-1.4h33l7.08-57.88h-4c-.79,4.28-5.62,29.78-11.36,40.17-2.85,5.16-9.93,7.81-16.18,10.15-1.93.72-3.75,1.4-5.34,2.12C282.71,362.14,282.27,365.07,282.21,366.37Z"/></g><g id="Character_seo-52"><path class="cls-2_seo-52" d="M173.71,245.22a35.88,35.88,0,0,1,11.73-1c6.48.55,9.63-3.11,9.76-6s-5.55-6.05-9.76-5.92-14.61,5.26-14.61,5.26Z"/><path class="cls-3_seo-52" d="M173.71,245.92a.73.73,0,0,1-.66-.45l-2.87-7.61a.7.7,0,0,1,.35-.88c.42-.21,10.58-5.18,14.89-5.32a13.4,13.4,0,0,1,9,3.56,4.22,4.22,0,0,1,1.44,3.08,6.37,6.37,0,0,1-2.3,4.41c-1.39,1.22-3.94,2.61-8.22,2.24a35.53,35.53,0,0,0-11.48.94A.63.63,0,0,1,173.71,245.92Zm-2-8,2.42,6.42a37.35,37.35,0,0,1,11.36-.83c3.78.32,6-.85,7.18-1.89a5,5,0,0,0,1.83-3.42,3,3,0,0,0-1-2,12,12,0,0,0-8-3.14C182,233.17,173.93,236.91,171.72,238Z"/><path class="cls-4_seo-52 targetColor" d="M137.78,195.64s9.68,38.64,12.52,39.76S176,233.35,176,233.35L174.67,247s-25.7,11.29-34.06,5-31-36.26-31-36.26Z" style="fill: rgb(153, 255, 132);"/><polygon class="cls-3_seo-52" points="181.46 243 194.09 249.59 207.31 223.7 194.68 217.12 181.46 243"/><path class="cls-3_seo-52" d="M194.09,250.29a.72.72,0,0,1-.32-.08l-12.63-6.59a.68.68,0,0,1-.3-.93l13.22-25.89a.71.71,0,0,1,.41-.35.68.68,0,0,1,.54.05l12.63,6.58a.71.71,0,0,1,.3.94l-13.23,25.89a.71.71,0,0,1-.41.35A.76.76,0,0,1,194.09,250.29ZM182.4,242.7l11.39,5.94L206.37,224,195,218.07Z"/><polyline class="cls-3_seo-52" points="192.19 224.3 239.89 130.91 249.58 135.96"/><path class="cls-3_seo-52" d="M192.19,225a.61.61,0,0,1-.32-.08.7.7,0,0,1-.31-.94l47.71-93.39a.69.69,0,0,1,.41-.34.72.72,0,0,1,.54,0l9.68,5.05a.7.7,0,1,1-.65,1.24l-9.05-4.72-47.39,92.76A.71.71,0,0,1,192.19,225Z"/><ellipse class="cls-3_seo-52" cx="225.72" cy="182.65" rx="52.44" ry="42.32" transform="translate(-37.76 304.68) rotate(-63.83)"/><path class="cls-3_seo-52" d="M218.25,234a36,36,0,0,1-16.7-4c-21-11-27.3-41.11-14-67.2,7.33-14.35,19.34-25.07,33-29.42,10.22-3.26,20.65-2.55,29.37,2,21,11,27.3,41.11,14,67.2-7.33,14.35-19.34,25.07-33,29.41A41.4,41.4,0,0,1,218.25,234Zm14.94-101.25a40.22,40.22,0,0,0-12.24,2c-13.26,4.23-25,14.7-32.13,28.72h0c-13,25.4-7,54.7,13.37,65.32,8.39,4.37,18.43,5,28.3,1.89,13.26-4.23,25-14.7,32.14-28.72,13-25.4,7-54.71-13.38-65.32A34.53,34.53,0,0,0,233.19,132.73Zm-45,30.36h0Z"/><ellipse class="cls-2_seo-52" cx="216.04" cy="177.61" rx="52.44" ry="42.32" transform="translate(-38.64 293.17) rotate(-63.83)"/><path class="cls-3_seo-52" d="M208.57,228.93a36,36,0,0,1-16.71-4c-21-11-27.3-41.11-14-67.2h0c7.33-14.35,19.34-25.07,33-29.41,10.22-3.27,20.65-2.56,29.37,2,21,11,27.3,41.11,14,67.2-7.33,14.35-19.34,25.07-33,29.42A41.67,41.67,0,0,1,208.57,228.93Zm-29.43-70.57c-13,25.4-7,54.71,13.37,65.32,8.38,4.37,18.43,5,28.3,1.89,13.26-4.23,25-14.7,32.13-28.72,13-25.4,7-54.7-13.37-65.32-8.38-4.37-18.43-5-28.3-1.89-13.26,4.23-25,14.7-32.13,28.72Z"/><ellipse class="cls-2_seo-52" cx="216.04" cy="177.61" rx="41.5" ry="33.49" transform="translate(-38.64 293.17) rotate(-63.83)"/><path class="cls-3_seo-52" d="M210.13,218.36a28.6,28.6,0,0,1-13.29-3.18c-16.72-8.72-21.7-32.66-11.12-53.38,5.82-11.39,15.36-19.9,26.16-23.35A30.27,30.27,0,0,1,235.24,140c16.72,8.71,21.7,32.65,11.12,53.37-5.82,11.39-15.36,19.9-26.17,23.35A33.16,33.16,0,0,1,210.13,218.36ZM222,138.22a31.81,31.81,0,0,0-9.7,1.57c-10.46,3.33-19.69,11.59-25.34,22.65h0c-10.24,20-5.52,43.13,10.52,51.49,6.69,3.49,14.4,4,22.28,1.5,10.46-3.34,19.69-11.6,25.34-22.66,10.24-20,5.52-43.13-10.52-51.49A26.91,26.91,0,0,0,222,138.22Zm-35.67,23.9h0Z"/><path class="cls-3_seo-52" d="M186.35,162.13c-10.43,20.4-5.59,43.88,10.81,52.43a27.77,27.77,0,0,0,3.27,1.44c-13.9-9.75-17.49-31.5-7.75-50.57s29.37-28.72,45.29-22.91a26.32,26.32,0,0,0-3.06-1.87C218.51,132.1,196.77,141.72,186.35,162.13Z"/><path class="cls-3_seo-52" d="M200.43,216.7a1,1,0,0,1-.23,0,28.83,28.83,0,0,1-3.37-1.48c-16.71-8.72-21.69-32.66-11.11-53.37,5.82-11.4,15.36-19.91,26.17-23.36A30.29,30.29,0,0,1,235.24,140a28,28,0,0,1,3.14,1.92.7.7,0,0,1-.65,1.22c-15.81-5.76-34.91,3.94-44.42,22.58s-6.29,40,7.53,49.67a.7.7,0,0,1-.41,1.28ZM222,138.22a31.86,31.86,0,0,0-9.7,1.57c-10.45,3.33-19.69,11.59-25.34,22.65-9.89,19.35-5.82,41.56,8.91,50.59-10.8-11.14-12.63-30.68-3.82-47.92S217.71,138,233,140.49A27.12,27.12,0,0,0,222,138.22Z"/><path class="cls-2_seo-52" d="M144.46,322.91l6.59,3.43a6.56,6.56,0,0,0,8.89-2.86L196,253a6.7,6.7,0,0,0-2.83-9l-6.6-3.43a6.55,6.55,0,0,0-8.88,2.86l-36,70.53A6.7,6.7,0,0,0,144.46,322.91Z"/><path class="cls-3_seo-52" d="M154.07,327.79a7.18,7.18,0,0,1-3.34-.83l-6.59-3.43h0a7.4,7.4,0,0,1-3.13-9.92l36-70.53a7.28,7.28,0,0,1,9.83-3.17l6.59,3.44a7.39,7.39,0,0,1,3.13,9.91l-36,70.54a7.32,7.32,0,0,1-6.49,4Zm-9.28-5.5,6.59,3.43a5.76,5.76,0,0,0,4.47.39,5.84,5.84,0,0,0,3.46-2.95l36-70.53a6,6,0,0,0-2.54-8l-6.59-3.43a5.76,5.76,0,0,0-4.47-.39,5.89,5.89,0,0,0-3.47,2.95l-36,70.53a6,6,0,0,0,2.54,8Z"/><path class="cls-4_seo-52 targetColor" d="M198.41,181.13a8.85,8.85,0,0,1-1.79-.91,8.25,8.25,0,0,1-1.5-1.24,10.2,10.2,0,0,1-1.17-1.47,7.7,7.7,0,0,1-.78-1.61l5.39-2.71a4.55,4.55,0,0,0,.83,1.78,3.56,3.56,0,0,0,1.64,1.26,2,2,0,0,0,.91.14.86.86,0,0,0,.72-.51.8.8,0,0,0,.11-.48,1.39,1.39,0,0,0-.24-.53,8,8,0,0,0-.64-.74c-.29-.3-.65-.65-1.09-1.06a10.17,10.17,0,0,1-1.16-1.31,4.77,4.77,0,0,1-.76-1.53,4.21,4.21,0,0,1-.13-1.79,6.06,6.06,0,0,1,.76-2.15,7.72,7.72,0,0,1,2.12-2.59,7.85,7.85,0,0,1,2.58-1.3,7.38,7.38,0,0,1,2.72-.24,9.11,9.11,0,0,1,2.52.58,7.73,7.73,0,0,1,2.83,1.9,7.53,7.53,0,0,1,1.8,3.06l-5.36,2.51a3.24,3.24,0,0,0-.7-1.65,3.06,3.06,0,0,0-1.21-.93,2.14,2.14,0,0,0-1-.17.85.85,0,0,0-.69.47.65.65,0,0,0,0,.75,8.12,8.12,0,0,0,.92,1c.46.42.93.88,1.42,1.39a6.66,6.66,0,0,1,1.17,1.71,4.9,4.9,0,0,1,.46,2.07,5.19,5.19,0,0,1-.73,2.51,8.34,8.34,0,0,1-2.08,2.58,7.82,7.82,0,0,1-2.57,1.4,7.74,7.74,0,0,1-2.73.38A8.06,8.06,0,0,1,198.41,181.13Z" style="fill: rgb(153, 255, 132);"/><path class="cls-4_seo-52 targetColor" d="M216.89,166.18l10.9,4.2-2.68,5-5.89-2.27-.82,1.53,5.53,2.13-2.51,4.64-5.53-2.13-.89,1.66,6.27,2.41-2.68,5L207.3,184Z" style="fill: rgb(153, 255, 132);"/><path class="cls-4_seo-52 targetColor" d="M224.93,179.89a13.49,13.49,0,0,1,2.76-3.6,11.56,11.56,0,0,1,3.42-2.21,10.53,10.53,0,0,1,3.79-.79,10.09,10.09,0,0,1,3.85.7,8.75,8.75,0,0,1,3.14,2,7.37,7.37,0,0,1,1.8,2.94,8.39,8.39,0,0,1,.28,3.64,11.9,11.9,0,0,1-1.41,4.11,14,14,0,0,1-2.77,3.63,11.88,11.88,0,0,1-3.48,2.28,10.44,10.44,0,0,1-3.83.85,10,10,0,0,1-3.86-.67,8.47,8.47,0,0,1-3.13-2,7.25,7.25,0,0,1-1.75-3,8.58,8.58,0,0,1-.23-3.71A12.29,12.29,0,0,1,224.93,179.89Zm5.67,2.18a6,6,0,0,0-.63,1.69,4.07,4.07,0,0,0,0,1.51,2.66,2.66,0,0,0,.56,1.2,2.58,2.58,0,0,0,1.1.77,3.14,3.14,0,0,0,1.4.19,3.88,3.88,0,0,0,1.43-.44,5,5,0,0,0,1.34-1,6.38,6.38,0,0,0,1.1-1.51,5.61,5.61,0,0,0,.61-1.66,3.4,3.4,0,0,0,0-1.46,2.85,2.85,0,0,0-.58-1.15,2.63,2.63,0,0,0-1.1-.75,3.29,3.29,0,0,0-1.4-.21,3.89,3.89,0,0,0-1.41.38,4.9,4.9,0,0,0-1.3,1A6.42,6.42,0,0,0,230.6,182.07Z" style="fill: rgb(153, 255, 132);"/><path class="cls-1_seo-52" d="M203.63,207.9a.71.71,0,0,1-.67-.49.7.7,0,0,1,.45-.88l24.17-7.84A.7.7,0,0,1,228,200l-24.17,7.84A.52.52,0,0,1,203.63,207.9Z"/><path class="cls-1_seo-52" d="M212.86,156.73a.7.7,0,0,1-.19-1.37c8.73-2.43,22-6.19,22.83-6.57a.7.7,0,0,1,.93.34.69.69,0,0,1-.33.93c-1.14.53-20.82,6-23.06,6.65A.55.55,0,0,1,212.86,156.73Z"/><path class="cls-1_seo-52" d="M196.31,192.28a.7.7,0,0,1-.25-1.35l11-4.14a.7.7,0,1,1,.49,1.31l-11,4.14A.67.67,0,0,1,196.31,192.28Z"/><path class="cls-1_seo-52" d="M233.73,171.78a.7.7,0,0,1-.2-1.37l12.61-3.65a.71.71,0,0,1,.87.48.71.71,0,0,1-.48.87l-12.61,3.64A.63.63,0,0,1,233.73,171.78Z"/><path class="cls-2_seo-52" d="M69.07,379.43s-3.11,4.79-2.56,5.16,15.15,6.09,14.06,7.75-22.46.92-31.77-2.4L54.1,375"/><path class="cls-3_seo-52" d="M73.52,393.9c-7.77,0-19.38-1.32-24.95-3.3a.72.72,0,0,1-.43-.9l5.3-14.93a.7.7,0,0,1,1.32.46L49.7,389.51c9.34,3,27.5,3.47,30.11,2.5-.81-1-4.76-3-11.78-6a19.85,19.85,0,0,1-1.91-.86c-.5-.34-1.12-.75,2.36-6.12a.7.7,0,1,1,1.17.76,31,31,0,0,0-2.43,4.34l1.36.59c8.84,3.79,12.29,5.7,12.7,7.06a1.1,1.1,0,0,1-.13.92C80.61,393.54,77.59,393.9,73.52,393.9Z"/><path class="cls-2_seo-52" d="M120,379.8l3.47,12.9s19.17,2,31.21,0c0-6.68-10.4-7.37-17.34-8.66l-4-6.27Z"/><path class="cls-3_seo-52" d="M141.31,394.3c-9.23,0-17.75-.89-17.88-.9a.71.71,0,0,1-.6-.51L119.36,380a.71.71,0,0,1,.09-.57.74.74,0,0,1,.48-.31l13.33-2a.69.69,0,0,1,.69.32l3.86,6,2.57.44c6.7,1.1,15,2.47,15,8.86a.68.68,0,0,1-.58.69A85.09,85.09,0,0,1,141.31,394.3Zm-17.25-2.25c3,.29,19.15,1.72,29.93.06-.54-4.71-7.59-5.86-13.83-6.89-1-.16-2-.32-2.91-.49a.74.74,0,0,1-.46-.31L133,378.53l-12.1,1.84Z"/><path class="cls-3_seo-52" d="M61,252s-3.92,21.19-.86,38.9,14.74,30.61,10.72,41.67-20.22,44.73-20.22,44.73l19,4.42S97.54,346.2,99,336.07s-9.12-41.61-9.12-41.61Z"/><path class="cls-3_seo-52" d="M69.66,382.43a.44.44,0,0,1-.16,0l-19-4.42a.71.71,0,0,1-.48-.38.72.72,0,0,1,0-.61c.16-.33,16.24-33.75,20.19-44.65,2.25-6.2-.72-13.21-4.15-21.33-2.49-5.87-5.32-12.54-6.6-20-3-17.63.83-38.94.87-39.15a.69.69,0,0,1,1.26-.27l28.84,42.46a.56.56,0,0,1,.09.17c.43,1.29,10.62,31.76,9.16,41.94s-28.35,44.53-29.49,46A.72.72,0,0,1,69.66,382.43Zm-18-5.61L69.38,381c2.9-3.72,27.59-35.68,28.93-45,1.38-9.59-8.44-39.33-9.07-41.21l-27.8-40.92c-.84,5.38-3.09,22.45-.58,36.94,1.26,7.29,4,13.88,6.51,19.69,3.55,8.39,6.62,15.63,4.18,22.34C67.91,342.85,54.15,371.68,51.68,376.82Z"/><path class="cls-3_seo-52" d="M113.61,265.83s11.72,54.58,14.28,66.75,10,49.15,10,49.15H118S101.83,336.27,95.26,330s-20.67-32.14-26.88-46.31S65.46,252,65.46,252Z"/><path class="cls-3_seo-52" d="M137.88,382.43H118a.7.7,0,0,1-.66-.46c-.16-.46-16.21-45.38-22.59-51.46-6.64-6.33-20.76-32.19-27-46.54s-3-31.91-3-32.09a.74.74,0,0,1,.32-.47.69.69,0,0,1,.56-.07l48.15,13.81a.71.71,0,0,1,.49.53c.12.55,11.76,54.73,14.28,66.76s9.92,48.78,10,49.15a.7.7,0,0,1-.68.84ZM118.53,381H137c-1.12-5.57-7.5-37.29-9.82-48.3-2.4-11.48-13.1-61.29-14.19-66.35L66,252.9c-.52,3.5-2.32,18.35,3,30.51,6.24,14.24,20.21,39.87,26.72,46.09C102.08,335.54,116.7,375.94,118.53,381Z"/><path class="cls-2_seo-52" d="M128.08,176.8c-1.44-.58-2.81-1.35-4.46-2.1s-3.35-2-2.83-3.62c.45-1.38,2.47-1.92,2.57-3.37a3.1,3.1,0,0,0-.22-1.16,16,16,0,0,1,.92-11.63,15.72,15.72,0,0,1,8.64-7.75.87.87,0,0,1-.7-1.1,2,2,0,0,1,1-1.11,9.54,9.54,0,0,1,5.32-1.14,29.22,29.22,0,0,1,16.38,5.83c3.68,2.66,7.45,7.7,5.17,12.5-.82,1.73-2.82,3-4.64,2.43-2.77,5-6.82,7.69-11.65,10.33a22.54,22.54,0,0,1-10.65,2.86A12.55,12.55,0,0,1,128.08,176.8Z"/><path class="cls-3_seo-52" d="M132.91,178.47h0a13.19,13.19,0,0,1-5.07-1c-.86-.35-1.68-.76-2.55-1.19-.61-.3-1.24-.61-1.93-.92-2.54-1.16-3.74-2.83-3.2-4.48a4.38,4.38,0,0,1,1.49-1.86c.54-.46,1-.85,1-1.34a2.41,2.41,0,0,0-.16-.81,16.65,16.65,0,0,1,.94-12.24,16.36,16.36,0,0,1,8-7.67,1.69,1.69,0,0,1-.09-1,2.6,2.6,0,0,1,1.26-1.53,10.35,10.35,0,0,1,5.71-1.25,30.12,30.12,0,0,1,16.78,6c4.35,3.15,7.7,8.51,5.39,13.37a5,5,0,0,1-4.92,2.93c-3,5.11-7.39,7.81-11.67,10.15A23.13,23.13,0,0,1,132.91,178.47Zm5-33.95a8.4,8.4,0,0,0-4.56,1,1.36,1.36,0,0,0-.65.69.36.36,0,0,0,.07.25.66.66,0,0,1,.66.57.7.7,0,0,1-.47.77,15,15,0,0,0-8.25,7.4,15.16,15.16,0,0,0-.88,11.11,3.74,3.74,0,0,1,.25,1.42,3.46,3.46,0,0,1-1.53,2.31,3.09,3.09,0,0,0-1.07,1.23c-.45,1.36,2,2.54,2.45,2.76.7.32,1.35.64,2,.95.85.42,1.65.81,2.46,1.14h0a11.82,11.82,0,0,0,4.55.92h0a21.69,21.69,0,0,0,10.29-2.77c5.28-2.88,8.84-5.45,11.38-10.05a.7.7,0,0,1,.82-.34c1.51.47,3.15-.7,3.79-2.06,2.25-4.73-2.05-9.54-4.94-11.64a28.73,28.73,0,0,0-16-5.69Z"/><path class="cls-2_seo-52" d="M153.9,172.86s1.6,7.63.29,8.56-3.71-1-3.71-1"/><path class="cls-3_seo-52" d="M153.33,182.37A6.27,6.27,0,0,1,150,181a.7.7,0,0,1-.11-1,.71.71,0,0,1,1-.11c.62.5,2.21,1.43,2.86,1,.46-.5.2-4.17-.56-7.83a.7.7,0,0,1,.54-.83.69.69,0,0,1,.83.54c.63,3,1.47,8.23,0,9.27A2.17,2.17,0,0,1,153.33,182.37Z"/><path class="cls-2_seo-52" d="M156.18,164.53c1.71,3.09-.74,7.18-1.88,10q-2.4,6-5.07,11.9c-1.13,2.49-7.68-.06-8.53-1.28l-2.92,10.46-11.63-10.78,3.82-8.09s4.42,1.8,9-2.37,8.63-15.58,8.63-15.58S154.52,161.53,156.18,164.53Z"/><path class="cls-3_seo-52" d="M137.78,196.34a.69.69,0,0,1-.47-.18l-11.63-10.79a.69.69,0,0,1-.16-.81l3.81-8.09a.7.7,0,0,1,.9-.35c.16.06,4.1,1.57,8.27-2.24,4.4-4,8.4-15.18,8.44-15.3a.66.66,0,0,1,.37-.4.72.72,0,0,1,.54,0c.29.12,7.18,2.84,9,6h0c1.58,2.86,0,6.32-1.19,9.1-.24.54-.47,1-.66,1.52-1.6,4-3.31,8-5.09,11.93a2.6,2.6,0,0,1-2.36,1.44,12.2,12.2,0,0,1-6.42-1.8l-2.62,9.44a.71.71,0,0,1-.49.49A.58.58,0,0,1,137.78,196.34ZM127,184.69l10.41,9.66L140,185a.69.69,0,0,1,.56-.5.71.71,0,0,1,.69.29c.45.64,3.88,2.21,6.1,2,.65-.06,1.06-.27,1.22-.62,1.77-3.89,3.47-7.89,5.06-11.87.2-.49.43-1,.68-1.57,1.11-2.49,2.49-5.6,1.24-7.86h0c-1.14-2.05-5.37-4.19-7.57-5.13-1,2.57-4.51,11.49-8.56,15.18-3.86,3.52-7.63,3.06-9.1,2.69Z"/><path class="cls-2_seo-52" d="M150.3,183.43s-3.83.68-4.21-3.19"/><path class="cls-3_seo-52" d="M149.65,184.17a4.55,4.55,0,0,1-2.72-.82,4.18,4.18,0,0,1-1.54-3,.7.7,0,0,1,1.4-.13,2.76,2.76,0,0,0,1,2.05,3.52,3.52,0,0,0,2.41.52.7.7,0,0,1,.25,1.38A6.36,6.36,0,0,1,149.65,184.17Z"/><path class="cls-2_seo-52" d="M145.27,172.39a5.9,5.9,0,0,0,0-3.2,8.5,8.5,0,0,0-.73-2.39,2.82,2.82,0,0,0-1.89-1.52,2.57,2.57,0,0,0-2,.62,5,5,0,0,0-1.28,1.8,9.33,9.33,0,0,0,.95,9.21l-.13-.32"/><path class="cls-3_seo-52" d="M140.25,177.61a.69.69,0,0,1-.56-.28,10.13,10.13,0,0,1-1-9.92,5.54,5.54,0,0,1,1.47-2,3.23,3.23,0,0,1,2.62-.78,3.5,3.5,0,0,1,2.38,1.87,9.1,9.1,0,0,1,.79,2.6,6.49,6.49,0,0,1,0,3.58.71.71,0,0,1-.9.41.7.7,0,0,1-.41-.9,5.34,5.34,0,0,0-.07-2.82,7.92,7.92,0,0,0-.66-2.2A2.1,2.1,0,0,0,142.5,166a1.91,1.91,0,0,0-1.47.47,4.16,4.16,0,0,0-1.09,1.55,8.67,8.67,0,0,0,.52,8,.69.69,0,0,1,.31.36l.13.33a.69.69,0,0,1-.65,1Z"/><ellipse class="cls-3_seo-52" cx="153.96" cy="169.27" rx="1.54" ry="0.6" transform="translate(-54.96 262.6) rotate(-71.79)"/><path class="cls-3_seo-52" d="M122.41,186.23l2.91-4,17.13,8-.67,7.34A37,37,0,0,1,122.41,186.23Z"/><path class="cls-3_seo-52" d="M141.78,198.33h-.11A37.37,37.37,0,0,1,121.9,186.7a.68.68,0,0,1-.05-.88l2.9-4a.7.7,0,0,1,.86-.22l17.13,8a.68.68,0,0,1,.4.69l-.66,7.34a.71.71,0,0,1-.27.49A.66.66,0,0,1,141.78,198.33Zm-18.46-12.15a37.33,37.33,0,0,0,17.84,10.6l.55-6.07-16.17-7.57Z"/><path class="cls-2_seo-52" d="M174.72,257.59s6.63,4.36,7.89,4.73,4.15-2.49,5.47-1.38,5.53,7.57,5.41,8.49-3.37,7.62-5.31,7-5.75-3.41-5.75-3.41l-12.64-3.6"/><path class="cls-3_seo-52" d="M188.45,277.15a1.36,1.36,0,0,1-.49-.08,30.91,30.91,0,0,1-5.84-3.43l-12.52-3.57a.7.7,0,1,1,.38-1.34l12.64,3.6a.55.55,0,0,1,.22.1,31.78,31.78,0,0,0,5.56,3.31c.08,0,.23,0,.42-.13,1.63-1,3.85-5.53,4-6.28-.11-.82-3.86-6.75-5.17-7.85-.39-.34-1.57.27-2.42.72-1,.53-2,1-2.8.79-1.3-.38-6.95-4.08-8.07-4.82a.69.69,0,0,1-.2-1,.7.7,0,0,1,1-.2,74.15,74.15,0,0,0,7.7,4.65,5.07,5.07,0,0,0,1.75-.69c1.34-.7,2.86-1.49,4-.55s5.84,7.75,5.65,9.11c-.12.92-2.48,6-4.6,7.27A2.17,2.17,0,0,1,188.45,277.15Z"/><path class="cls-4_seo-52 targetColor" d="M147.19,202.2s-.22,39,2.54,39.35S177,258.21,177,258.21l-6.76,16.13s-32.93-9.51-39.73-14c-3.6-2.4-4.59-44.54-4.59-44.54Z" style="fill: rgb(153, 255, 132);"/><path class="cls-4_seo-52 targetColor" d="M146.09,199.71c-8.31-8.08-19.19-20.93-40-12.6s-50.32,69-50.32,69L120,270.43S153.84,207.25,146.09,199.71Z" style="fill: rgb(153, 255, 132);"/><path class="cls-3_seo-52" d="M129.21,258.29a.7.7,0,0,1-.69-.64c0-.24-2.27-24.62-3.32-41.85a.7.7,0,1,1,1.39-.09c1,17.22,3.3,41.57,3.32,41.81a.71.71,0,0,1-.63.77Z"/><path class="cls-2_seo-52" d="M95.26,330.7a.69.69,0,0,1-.56-.28c-.25-.33-25.29-33.72-29.81-55.94a.7.7,0,0,1,.55-.83.69.69,0,0,1,.82.55c4.46,21.91,29.31,55.05,29.56,55.38a.7.7,0,0,1-.14,1A.65.65,0,0,1,95.26,330.7Z"/><path class="cls-3_seo-52" d="M169.79,254.76a.71.71,0,0,1-.32-.07l-23.7-12a.7.7,0,0,1-.38-.67c0-.31,2.1-31.44.66-38.92a.7.7,0,1,1,1.38-.26c1.39,7.24-.34,34.74-.61,38.81l23.28,11.82a.69.69,0,0,1,.31.94A.68.68,0,0,1,169.79,254.76Z"/><path class="cls-2_seo-52" d="M177,235.58s6.63-5.31,8.73-5.16,10.08,1.26,7.78,2.93-8.05.76-8.05.76.64.7-2.1,2.56"/><path class="cls-3_seo-52" d="M183.34,237.37a.73.73,0,0,1-.58-.3.71.71,0,0,1,.18-1c1.5-1,1.8-1.57,1.85-1.72a.74.74,0,0,1,0-.6.73.73,0,0,1,.72-.36c1.52.25,5.84.61,7.53-.62,0,0,0,0,0,0-.79-.63-4.68-1.44-7.46-1.63h-.06c-1.32,0-5.56,2.91-8.18,5a.7.7,0,1,1-.88-1.1c1.15-.91,7-5.51,9.22-5.31.08,0,8.19.61,8.8,2.72a1.32,1.32,0,0,1-.66,1.48c-2,1.45-6.11,1.17-7.81,1a6.2,6.2,0,0,1-2.36,2.35A.69.69,0,0,1,183.34,237.37Zm1.58-2.8Zm0,0"/></g><g id="Book_seo-52"><rect class="cls-2_seo-52" x="329.53" y="365.55" width="90.99" height="23.65"/><path class="cls-3_seo-52" d="M420.52,389.9h-91a.7.7,0,0,1-.7-.7V365.55a.7.7,0,0,1,.7-.7h91a.7.7,0,0,1,.7.7V389.2A.7.7,0,0,1,420.52,389.9Zm-90.29-1.4h89.59V366.25H330.23Z"/><rect class="cls-3_seo-52" x="396.57" y="365.55" width="74.16" height="23.65"/><path class="cls-3_seo-52" d="M470.73,389.9H396.57a.7.7,0,0,1-.7-.7V365.55a.7.7,0,0,1,.7-.7h74.16a.7.7,0,0,1,.7.7V389.2A.7.7,0,0,1,470.73,389.9Zm-73.46-1.4H470V366.25H397.27Z"/><rect class="cls-2_seo-52" x="337.62" y="341.91" width="72.9" height="23.65"/><path class="cls-3_seo-52" d="M410.52,366.25h-72.9a.7.7,0,0,1-.7-.7V341.91a.7.7,0,0,1,.7-.7h72.9a.7.7,0,0,1,.7.7v23.64A.7.7,0,0,1,410.52,366.25Zm-72.2-1.4h71.5V342.61h-71.5Z"/><rect class="cls-3_seo-52" x="410.52" y="341.91" width="48.74" height="23.65"/><path class="cls-3_seo-52" d="M459.26,366.25H410.52a.7.7,0,0,1-.7-.7V341.91a.7.7,0,0,1,.7-.7h48.74a.7.7,0,0,1,.7.7v23.64A.7.7,0,0,1,459.26,366.25Zm-48-1.4h47.34V342.61H411.22Z"/><circle class="cls-2_seo-52" cx="425.13" cy="353.74" r="5.17"/><rect class="cls-2_seo-52" x="344.75" y="330" width="64.15" height="11.91"/><path class="cls-3_seo-52" d="M408.9,342.61H344.75a.7.7,0,0,1-.7-.7V330a.7.7,0,0,1,.7-.7H408.9a.7.7,0,0,1,.7.7v11.91A.7.7,0,0,1,408.9,342.61Zm-63.45-1.4H408.2V330.7H345.45Z"/><rect class="cls-3_seo-52" x="386.89" y="330" width="61.02" height="11.91"/><path class="cls-3_seo-52" d="M447.91,342.61h-61a.7.7,0,0,1-.7-.7V330a.7.7,0,0,1,.7-.7h61a.7.7,0,0,1,.7.7v11.91A.7.7,0,0,1,447.91,342.61Zm-60.32-1.4h59.62V330.7H387.59Z"/><circle class="cls-2_seo-52" cx="408.07" cy="377.38" r="5.17"/><path class="cls-2_seo-52" d="M459.26,366.25H414.8a.7.7,0,0,1,0-1.4h44.46a.7.7,0,1,1,0,1.4Z"/><path class="cls-2_seo-52" d="M447.91,342.61H410.52a.7.7,0,0,1,0-1.4h37.39a.7.7,0,1,1,0,1.4Z"/></g></svg>